<?xml version="1.0" encoding="UTF-8" standalone="no"?>
<svg
   xmlns:dc="http://purl.org/dc/elements/1.1/"
   xmlns:cc="http://creativecommons.org/ns#"
   xmlns:rdf="http://www.w3.org/1999/02/22-rdf-syntax-ns#"
   xmlns:svg="http://www.w3.org/2000/svg"
   xmlns="http://www.w3.org/2000/svg"
   version="1.1"
   id="svg2"
   viewBox="0 0 1400 400"
   height="400"
   width="1400"
   style="background-color: white;"
   >

  <defs>
    <marker
       style="overflow:visible;"
       id="middle"
       refX="0.0"
       refY="0.0"
       orient="auto">
      <path
         transform="scale(0.5) rotate(180) translate(-10,0)"
         style="fill-rule:evenodd;stroke:#000000;stroke-width:1;fill:#000000;fill-opacity:0.3;stroke-opacity:0.3;"
         d="M 0.0,0.0 L 5.0,-5.0 L -12.5,0.0 L 5.0,5.0 L 0.0,0.0 z "
         id="path4890" />
    </marker>
  </defs>

  <g transform="translate(0, -250) scale(2)">
      <!-- film -->
      <rect x="100" y="302" width="500" height="17" fill="none" stroke='gray'/>
      <text x="620" y="312" fill="gray">film</text>

      <!-- plate -->
      <rect x="100" y="260" width="500" height="40" fill="none" stroke='green'/>
      <text x="620" y="280" fill="green">plate</text>
      
      <!-- S -->
      <circle cx="300" cy="302" r="3" />
      <text x="300" y="315" fill="gray" text-anchor='middle'>S</text>
      
      <!-- Sa -->
<path d="m 300,300 0.0,-20 0.0,-20" style="fill:none;stroke:#000000;stroke-width:1px;marker-mid:url(#middle)" />
<text x="300" y="255" fill="black" text-anchor='middle'>a</text>
<!-- aa' -->
<path d="m 300,260 0.0,20 0.0,20" style="fill:none;stroke:#000000;stroke-width:1px;marker-mid:url(#middle);opacity:0.7;" />
<!-- a_out' -->
<path d="m 300,260 0.0,-10 0.0,-10" style="fill:none;stroke:#000000;stroke-width:1px;marker-mid:url(#middle);opacity:0.3;" />
<!-- Sb -->
<path d="m 300,300 5.0,-20 5.0,-20" style="fill:none;stroke:#000000;stroke-width:1px;marker-mid:url(#middle)" />
<text x="310" y="255" fill="black" text-anchor='middle'>b</text>
<!-- bb' -->
<path d="m 310,260 5.0,20 5.0,20" style="fill:none;stroke:#000000;stroke-width:1px;marker-mid:url(#middle);opacity:0.7;" />
<text x="320" y="315" fill="black" text-anchor='middle'>b'</text>
<!-- b_out' -->
<path d="m 310,260 4.21052631579,-10 4.21052631579,-10" style="fill:none;stroke:#000000;stroke-width:1px;marker-mid:url(#middle);opacity:0.3;" />
<!-- Sc -->
<path d="m 300,300 10.0,-20 10.0,-20" style="fill:none;stroke:#000000;stroke-width:1px;marker-mid:url(#middle)" />
<text x="320" y="255" fill="black" text-anchor='middle'>c</text>
<!-- cc' -->
<path d="m 320,260 10.0,20 10.0,20" style="fill:none;stroke:#000000;stroke-width:1px;marker-mid:url(#middle);opacity:0.7;" />
<text x="340" y="315" fill="black" text-anchor='middle'>c'</text>
<!-- c_out' -->
<path d="m 320,260 10.2429503946,-10 10.2429503946,-10" style="fill:none;stroke:#000000;stroke-width:1px;marker-mid:url(#middle);opacity:0.3;" />
<!-- Se -->
<path d="m 300,300 16.01278256,-20 16.01278256,-20" style="fill:none;stroke:#000000;stroke-width:1px;marker-mid:url(#middle)" />
<text x="332.02556512" y="255" fill="black" text-anchor='middle'>e</text>
<!-- ee' -->
<path d="m 332.02556512,260 16.01278256,20 16.01278256,20" style="fill:none;stroke:#000000;stroke-width:1px;marker-mid:url(#middle);opacity:0.7;" />
<text x="364.05113024" y="315" fill="black" text-anchor='middle'>e'</text>
<!-- e_out' -->
<path d="m 332.02556512,260 6327.08048224,-10 6327.08048224,-10" style="fill:none;stroke:#000000;stroke-width:1px;marker-mid:url(#middle);opacity:0.3;" />
<!-- Sf -->
<path d="m 300,300 20.0,-20 20.0,-20" style="fill:none;stroke:#000000;stroke-width:1px;marker-mid:url(#middle)" />
<text x="340" y="255" fill="black" text-anchor='middle'>f</text>
<!-- ff' -->
<path d="m 340,260 20.0,20 20.0,20" style="fill:none;stroke:#000000;stroke-width:1px;marker-mid:url(#middle);opacity:0.7;" />
<text x="380" y="315" fill="black" text-anchor='middle'>f'</text>

  </g>
  
</svg>

